<?xml version="1.0" encoding="utf-8"?>
<!-- Generator: Adobe Illustrator 27.8.1, SVG Export Plug-In . SVG Version: 6.00 Build 0)  -->
<svg version="1.1" id="Layer_1" xmlns="http://www.w3.org/2000/svg" xmlns:xlink="http://www.w3.org/1999/xlink" x="0px" y="0px"
	 viewBox="0 0 400 225" style="enable-background:new 0 0 400 225;" xml:space="preserve">
<style type="text/css">
	.st0{fill:none;}
</style>
<g>
	<g id="Layer_2_00000025420857896847875940000007123222534921666178_">
		<g id="drag_and_drop">
			<rect y="0" class="st0" width="400" height="225"/>
			<g>
				<path d="M306,41.1c0,46.8,0,93.6,0,140.4c-3.4,8.8-6.7,11.1-16.2,11.1c-59.4,0-118.7,0-178.1,0c-9.3,0-14.7-5.3-14.7-14.6
					c0-24.9,0-49.9,0-74.8c0-19.7,0-39.5,0-59.1c0-3.7,1.1-6.9,3.6-9.7c2.9-3.1,6.7-4.2,10.9-4.2c60,0.1,119.9,0,179.9,0
					c0.6,0,1.1,0,1.6,0c5,0.2,8.7,2.5,11.1,6.7C305.1,38.2,305.5,39.7,306,41.1z M110.6,136.7c0.7-0.8,1.2-1.3,1.6-1.8
					c15.4-17.9,30.8-35.9,46.3-53.8c5-5.8,11.6-5.7,16.5,0.1c16.4,19.6,32.7,39.1,49.1,58.7c0.8,0.9,1.5,1.8,2.5,3
					c0.6-0.8,1.1-1.4,1.6-1.9c8-8.1,16-16.1,24.1-24c1.4-1.4,3.2-2.5,5.1-3.2c3.5-1.1,6.7-0.1,9.4,2.4c8,7.3,16,14.5,24,21.8
					c0.5,0.5,1.1,0.9,1.8,1.5c0-32.3,0-64.2,0-96.1c-60.8,0-121.4,0-182.1,0C110.6,74.5,110.6,105.4,110.6,136.7z"/>
				<path d="M254.6,96.3c-10,0-18.1-8.1-18.2-18.1s8.2-18.3,18.3-18.3s18.4,8.3,18.2,18.4C272.8,88.3,264.6,96.3,254.6,96.3z"/>
			</g>
		</g>
	</g>
</g>
</svg>
