<?xml version="1.0" encoding="utf-8"?>
<!-- Generator: Adobe Illustrator 20.1.0, SVG Export Plug-In . SVG Version: 6.00 Build 0)  -->
<svg version="1.1" id="Layer_1" xmlns="http://www.w3.org/2000/svg" xmlns:xlink="http://www.w3.org/1999/xlink" x="0px" y="0px"
	 viewBox="0 0 903 459" style="enable-background:new 0 0 903 459;" xml:space="preserve">
<style type="text/css">
	.st0{fill:#9AADD7;}
	.st1{fill:#717E9C;}
	.st2{fill:#7884A0;}
	.st3{fill:#F9FD91;}
	.st4{fill:#F0F48C;}
</style>
<rect x="1" class="st0" width="903.1" height="459.1"/>
<polygon class="st1" points="906,459.5 906,336.6 746.4,238.4 436,459.5 "/>
<polygon class="st1" points="705.1,459.5 815.2,427.6 432.2,192.7 57.7,459.5 "/>
<polygon class="st1" points="424.7,459.5 114.4,238.4 0.1,308.7 0.1,459.5 "/>
<polygon class="st2" points="-0.3,348.9 144,260.1 113.1,240.2 -0.3,308.3 "/>
<path class="st3" d="M122.8,1.3c88.7,71.6,201.5,114.5,324.3,114.5S682.7,72.9,771.4,1.3C771.4,1.3,122.8,1.3,122.8,1.3z"/>
<g>
	<path class="st4" d="M356.3,107.8c29.5,5.2,59.8,8,90.8,8c122.8,0,235.6-42.9,324.3-114.5H504.2L356.3,107.8z"/>
</g>
<polygon class="st2" points="127.3,459.5 468.3,216.9 434.1,193.1 51.8,459.5 "/>
<polygon class="st2" points="494.8,459.5 776.9,258.9 747.4,238.3 431.1,459.5 "/>
</svg>
